<?xml version="1.0" encoding="UTF-8" standalone="no"?>
<!DOCTYPE svg PUBLIC "-//W3C//DTD SVG 1.1//EN"
 "http://www.w3.org/Graphics/SVG/1.1/DTD/svg11.dtd">
<!-- Generated by graphviz version 2.44.0 (0)
 -->
<!-- Pages: 1 -->
<svg width="1558pt" height="210pt"
 viewBox="0.00 0.00 1557.59 210.00" xmlns="http://www.w3.org/2000/svg" xmlns:xlink="http://www.w3.org/1999/xlink">
<g id="graph0" class="graph" transform="scale(1 1) rotate(0) translate(4 206)">
<polygon fill="white" stroke="transparent" points="-4,4 -4,-206 1553.59,-206 1553.59,4 -4,4"/>
<!-- 139634426179072 -->
<g id="node1" class="node">
<title>139634426179072</title>
<polygon fill="none" stroke="black" points="333,-165.5 333,-201.5 537,-201.5 537,-165.5 333,-165.5"/>
<text text-anchor="middle" x="383.5" y="-179.8" font-family="Times-Roman" font-size="14.00">data 0.0000</text>
<polyline fill="none" stroke="black" points="434,-165.5 434,-201.5 "/>
<text text-anchor="middle" x="485.5" y="-179.8" font-family="Times-Roman" font-size="14.00">grad 1.0000</text>
</g>
<!-- 139634426136512+ -->
<g id="node15" class="node">
<title>139634426136512+</title>
<ellipse fill="none" stroke="black" cx="603" cy="-128.5" rx="27" ry="18"/>
<text text-anchor="middle" x="603" y="-124.8" font-family="Times-Roman" font-size="14.00">+</text>
</g>
<!-- 139634426179072&#45;&gt;139634426136512+ -->
<g id="edge13" class="edge">
<title>139634426179072&#45;&gt;139634426136512+</title>
<path fill="none" stroke="black" d="M511.72,-165.46C521.32,-162.7 530.94,-159.7 540,-156.5 550.55,-152.78 561.78,-147.98 571.75,-143.41"/>
<polygon fill="black" stroke="black" points="573.28,-146.55 580.85,-139.13 570.31,-140.21 573.28,-146.55"/>
</g>
<!-- 139634425803200 -->
<g id="node2" class="node">
<title>139634425803200</title>
<polygon fill="none" stroke="black" points="330,-55.5 330,-91.5 540,-91.5 540,-55.5 330,-55.5"/>
<text text-anchor="middle" x="383.5" y="-69.8" font-family="Times-Roman" font-size="14.00">data &#45;2.0000</text>
<polyline fill="none" stroke="black" points="437,-55.5 437,-91.5 "/>
<text text-anchor="middle" x="488.5" y="-69.8" font-family="Times-Roman" font-size="14.00">grad 0.0665</text>
</g>
<!-- 139634426136352* -->
<g id="node9" class="node">
<title>139634426136352*</title>
<ellipse fill="none" stroke="black" cx="603" cy="-73.5" rx="27" ry="18"/>
<text text-anchor="middle" x="603" y="-69.8" font-family="Times-Roman" font-size="14.00">*</text>
</g>
<!-- 139634425803200&#45;&gt;139634426136352* -->
<g id="edge12" class="edge">
<title>139634425803200&#45;&gt;139634426136352*</title>
<path fill="none" stroke="black" d="M540.19,-73.5C549.23,-73.5 557.92,-73.5 565.78,-73.5"/>
<polygon fill="black" stroke="black" points="565.93,-77 575.93,-73.5 565.93,-70 565.93,-77"/>
</g>
<!-- 139634426137232 -->
<g id="node3" class="node">
<title>139634426137232</title>
<polygon fill="none" stroke="black" points="333,-110.5 333,-146.5 537,-146.5 537,-110.5 333,-110.5"/>
<text text-anchor="middle" x="383.5" y="-124.8" font-family="Times-Roman" font-size="14.00">data 0.2355</text>
<polyline fill="none" stroke="black" points="434,-110.5 434,-146.5 "/>
<text text-anchor="middle" x="485.5" y="-124.8" font-family="Times-Roman" font-size="14.00">grad 1.0000</text>
</g>
<!-- 139634426137232&#45;&gt;139634426136512+ -->
<g id="edge6" class="edge">
<title>139634426137232&#45;&gt;139634426136512+</title>
<path fill="none" stroke="black" d="M537.34,-128.5C547.42,-128.5 557.12,-128.5 565.8,-128.5"/>
<polygon fill="black" stroke="black" points="565.85,-132 575.85,-128.5 565.85,-125 565.85,-132"/>
</g>
<!-- 139634426137232* -->
<g id="node4" class="node">
<title>139634426137232*</title>
<ellipse fill="none" stroke="black" cx="267" cy="-128.5" rx="27" ry="18"/>
<text text-anchor="middle" x="267" y="-124.8" font-family="Times-Roman" font-size="14.00">*</text>
</g>
<!-- 139634426137232*&#45;&gt;139634426137232 -->
<g id="edge1" class="edge">
<title>139634426137232*&#45;&gt;139634426137232</title>
<path fill="none" stroke="black" d="M294.3,-128.5C302.55,-128.5 312.22,-128.5 322.57,-128.5"/>
<polygon fill="black" stroke="black" points="322.66,-132 332.66,-128.5 322.66,-125 322.66,-132"/>
</g>
<!-- 139634426178240 -->
<g id="node5" class="node">
<title>139634426178240</title>
<polygon fill="none" stroke="black" points="0,-138.5 0,-174.5 204,-174.5 204,-138.5 0,-138.5"/>
<text text-anchor="middle" x="50.5" y="-152.8" font-family="Times-Roman" font-size="14.00">data 0.2355</text>
<polyline fill="none" stroke="black" points="101,-138.5 101,-174.5 "/>
<text text-anchor="middle" x="152.5" y="-152.8" font-family="Times-Roman" font-size="14.00">grad 1.0000</text>
</g>
<!-- 139634426178240&#45;&gt;139634426137232* -->
<g id="edge14" class="edge">
<title>139634426178240&#45;&gt;139634426137232*</title>
<path fill="none" stroke="black" d="M204.38,-139.09C213.65,-137.49 222.56,-135.96 230.58,-134.58"/>
<polygon fill="black" stroke="black" points="231.3,-138.01 240.57,-132.87 230.12,-131.11 231.3,-138.01"/>
</g>
<!-- 139634425802944 -->
<g id="node6" class="node">
<title>139634425802944</title>
<polygon fill="none" stroke="black" points="0,-83.5 0,-119.5 204,-119.5 204,-83.5 0,-83.5"/>
<text text-anchor="middle" x="50.5" y="-97.8" font-family="Times-Roman" font-size="14.00">data 1.0000</text>
<polyline fill="none" stroke="black" points="101,-83.5 101,-119.5 "/>
<text text-anchor="middle" x="152.5" y="-97.8" font-family="Times-Roman" font-size="14.00">grad 0.2355</text>
</g>
<!-- 139634425802944&#45;&gt;139634426137232* -->
<g id="edge7" class="edge">
<title>139634425802944&#45;&gt;139634426137232*</title>
<path fill="none" stroke="black" d="M204.38,-118.29C213.65,-119.83 222.56,-121.3 230.58,-122.63"/>
<polygon fill="black" stroke="black" points="230.13,-126.11 240.57,-124.29 231.27,-119.2 230.13,-126.11"/>
</g>
<!-- 139634426178752 -->
<g id="node7" class="node">
<title>139634426178752</title>
<polygon fill="none" stroke="black" points="330.5,-0.5 330.5,-36.5 539.5,-36.5 539.5,-0.5 330.5,-0.5"/>
<text text-anchor="middle" x="381" y="-14.8" font-family="Times-Roman" font-size="14.00">data 0.0665</text>
<polyline fill="none" stroke="black" points="431.5,-0.5 431.5,-36.5 "/>
<text text-anchor="middle" x="485.5" y="-14.8" font-family="Times-Roman" font-size="14.00">grad &#45;2.0000</text>
</g>
<!-- 139634426178752&#45;&gt;139634426136352* -->
<g id="edge8" class="edge">
<title>139634426178752&#45;&gt;139634426136352*</title>
<path fill="none" stroke="black" d="M508.59,-36.57C519.21,-39.64 529.94,-42.98 540,-46.5 550.3,-50.11 561.3,-54.66 571.14,-58.99"/>
<polygon fill="black" stroke="black" points="569.95,-62.29 580.51,-63.21 572.82,-55.91 569.95,-62.29"/>
</g>
<!-- 139634426136352 -->
<g id="node8" class="node">
<title>139634426136352</title>
<polygon fill="none" stroke="black" points="666,-55.5 666,-91.5 876,-91.5 876,-55.5 666,-55.5"/>
<text text-anchor="middle" x="719.5" y="-69.8" font-family="Times-Roman" font-size="14.00">data &#45;0.1331</text>
<polyline fill="none" stroke="black" points="773,-55.5 773,-91.5 "/>
<text text-anchor="middle" x="824.5" y="-69.8" font-family="Times-Roman" font-size="14.00">grad 1.0000</text>
</g>
<!-- 139634426136432+ -->
<g id="node11" class="node">
<title>139634426136432+</title>
<ellipse fill="none" stroke="black" cx="939" cy="-100.5" rx="27" ry="18"/>
<text text-anchor="middle" x="939" y="-96.8" font-family="Times-Roman" font-size="14.00">+</text>
</g>
<!-- 139634426136352&#45;&gt;139634426136432+ -->
<g id="edge11" class="edge">
<title>139634426136352&#45;&gt;139634426136432+</title>
<path fill="none" stroke="black" d="M876.19,-90.45C885.52,-91.96 894.47,-93.42 902.51,-94.73"/>
<polygon fill="black" stroke="black" points="902.1,-98.21 912.53,-96.36 903.23,-91.3 902.1,-98.21"/>
</g>
<!-- 139634426136352*&#45;&gt;139634426136352 -->
<g id="edge2" class="edge">
<title>139634426136352*&#45;&gt;139634426136352</title>
<path fill="none" stroke="black" d="M630.3,-73.5C637.76,-73.5 646.38,-73.5 655.6,-73.5"/>
<polygon fill="black" stroke="black" points="655.83,-77 665.83,-73.5 655.83,-70 655.83,-77"/>
</g>
<!-- 139634426136432 -->
<g id="node10" class="node">
<title>139634426136432</title>
<polygon fill="none" stroke="black" points="1002,-82.5 1002,-118.5 1206,-118.5 1206,-82.5 1002,-82.5"/>
<text text-anchor="middle" x="1052.5" y="-96.8" font-family="Times-Roman" font-size="14.00">data 0.1024</text>
<polyline fill="none" stroke="black" points="1103,-82.5 1103,-118.5 "/>
<text text-anchor="middle" x="1154.5" y="-96.8" font-family="Times-Roman" font-size="14.00">grad 1.0000</text>
</g>
<!-- 139634426138032ReLU -->
<g id="node13" class="node">
<title>139634426138032ReLU</title>
<ellipse fill="none" stroke="black" cx="1275.8" cy="-100.5" rx="33.6" ry="18"/>
<text text-anchor="middle" x="1275.8" y="-96.8" font-family="Times-Roman" font-size="14.00">ReLU</text>
</g>
<!-- 139634426136432&#45;&gt;139634426138032ReLU -->
<g id="edge9" class="edge">
<title>139634426136432&#45;&gt;139634426138032ReLU</title>
<path fill="none" stroke="black" d="M1206.22,-100.5C1215.11,-100.5 1223.75,-100.5 1231.74,-100.5"/>
<polygon fill="black" stroke="black" points="1231.82,-104 1241.82,-100.5 1231.82,-97 1231.82,-104"/>
</g>
<!-- 139634426136432+&#45;&gt;139634426136432 -->
<g id="edge3" class="edge">
<title>139634426136432+&#45;&gt;139634426136432</title>
<path fill="none" stroke="black" d="M966.19,-100.5C973.66,-100.5 982.3,-100.5 991.54,-100.5"/>
<polygon fill="black" stroke="black" points="991.77,-104 1001.77,-100.5 991.77,-97 991.77,-104"/>
</g>
<!-- 139634426138032 -->
<g id="node12" class="node">
<title>139634426138032</title>
<polygon fill="none" stroke="black" points="1345.59,-82.5 1345.59,-118.5 1549.59,-118.5 1549.59,-82.5 1345.59,-82.5"/>
<text text-anchor="middle" x="1396.09" y="-96.8" font-family="Times-Roman" font-size="14.00">data 0.1024</text>
<polyline fill="none" stroke="black" points="1446.59,-82.5 1446.59,-118.5 "/>
<text text-anchor="middle" x="1498.09" y="-96.8" font-family="Times-Roman" font-size="14.00">grad 1.0000</text>
</g>
<!-- 139634426138032ReLU&#45;&gt;139634426138032 -->
<g id="edge4" class="edge">
<title>139634426138032ReLU&#45;&gt;139634426138032</title>
<path fill="none" stroke="black" d="M1309.94,-100.5C1317.66,-100.5 1326.31,-100.5 1335.41,-100.5"/>
<polygon fill="black" stroke="black" points="1335.43,-104 1345.43,-100.5 1335.43,-97 1335.43,-104"/>
</g>
<!-- 139634426136512 -->
<g id="node14" class="node">
<title>139634426136512</title>
<polygon fill="none" stroke="black" points="669,-110.5 669,-146.5 873,-146.5 873,-110.5 669,-110.5"/>
<text text-anchor="middle" x="719.5" y="-124.8" font-family="Times-Roman" font-size="14.00">data 0.2355</text>
<polyline fill="none" stroke="black" points="770,-110.5 770,-146.5 "/>
<text text-anchor="middle" x="821.5" y="-124.8" font-family="Times-Roman" font-size="14.00">grad 1.0000</text>
</g>
<!-- 139634426136512&#45;&gt;139634426136432+ -->
<g id="edge10" class="edge">
<title>139634426136512&#45;&gt;139634426136432+</title>
<path fill="none" stroke="black" d="M873.34,-111.41C883.73,-109.65 893.71,-107.97 902.59,-106.47"/>
<polygon fill="black" stroke="black" points="903.19,-109.92 912.47,-104.81 902.03,-103.02 903.19,-109.92"/>
</g>
<!-- 139634426136512+&#45;&gt;139634426136512 -->
<g id="edge5" class="edge">
<title>139634426136512+&#45;&gt;139634426136512</title>
<path fill="none" stroke="black" d="M630.3,-128.5C638.55,-128.5 648.22,-128.5 658.57,-128.5"/>
<polygon fill="black" stroke="black" points="658.66,-132 668.66,-128.5 658.66,-125 658.66,-132"/>
</g>
</g>
</svg>
